<svg id="Calque_5" data-name="Calque 5" xmlns="http://www.w3.org/2000/svg" viewBox="0 0 951.41 918.48"><title>Logo_Pipo_Kikk</title><path d="M564.55,260.41c62,15.59,101.89,52.83,129.2,84.59,23.35,27.15,71.87,62.17,78.47,122.39,4,36.42-3.82,67.15-12.37,100.85-6.27,24.69-13.28,51.44-31.55,82.28-10.63,18-45.31,60.94-82.08,85.65-41.79,28.09-83.1,32.17-104.56,34-52.4,4.54-91.45-8.85-132.4-22.89-51.81-17.77-84.39-28.94-115.69-60-48.24-47.88-57.83-107.66-62.49-136.73-5.34-33.3-14.75-92,16.7-149.1,25.41-46.11,63.82-66.39,113.84-92.8C423.95,275.76,489,241.41,564.55,260.41Z" transform="translate(-36.3 -52.76)" fill="none" stroke="#fdb82b" stroke-miterlimit="10" stroke-width="13"/><path d="M586.81,210.78c44.66,12.29,75,47.55,135.59,118.07C772.53,387.17,813.7,426,818.58,478c2.61,27.86,2.91,53.06-9.73,85-18.66,47.16-27,62.48-50.77,104.52C744,692.37,706.76,756,629.63,789.47a253.36,253.36,0,0,1-77.2,19.46c-32,2.9-62.28-.5-142.72-25.3-43.91-13.54-75.6-25.88-100-32C236.57,733.48,184.15,637.43,183,562.12q0-1.8,0-3.62c0-48.37-28.76-92.75-2.87-154.4,25-59.58,86.8-91.54,121.88-116.11,49.92-35,95.5-48.57,131.7-59C501.15,209.44,540.54,198,586.81,210.78Z" transform="translate(-36.3 -52.76)" fill="none" stroke="#fdb82b" stroke-miterlimit="10" stroke-width="11"/><path d="M604.89,163c44.52,12.08,79.38,51.92,147.3,131.12,68.76,80.17,103.26,121.36,109.11,175.49,4.44,41.08-5.68,75.17-19.1,120.36-8.76,29.5-22.58,74.55-58.65,122.38-6,8-26.75,34.72-61.37,62.53-26.06,20.93-90,72.29-174.58,78.67-18.17,1.37-17.5-.83-152.07-35C276.83,788.51,239,780.76,205.28,743.32c-21.29-23.63-33.2-50.48-36.83-59.17-13.46-32.21-8.55-42.88-19.78-105.56C137.64,517,130.17,512,130.95,478.4c0.16-6.71,1.19-38.23,15-76.65,16.83-46.82,42.9-76.76,65.47-102.2,14.61-16.47,36.25-40.85,69.56-63.2,15.38-10.32,51.42-32.4,159.57-54.46C529.49,163.73,574,154.66,604.89,163Z" transform="translate(-36.3 -52.76)" fill="none" stroke="#fdb82b" stroke-miterlimit="10" stroke-width="9"/><path d="M590.74,108.9c73.48,13.87,126.94,64.4,141.43,79,17.29,17.43,13,17.93,63.5,78.29,39.7,47.49,44,49.18,64.22,75.47,37.8,49.17,56.7,73.76,64.22,103.69,5.32,21.17-2.47,62.08-18,143.89-10.62,55.8-15.77,77.44-31,102.28-11.84,19.28-23.92,31.46-44.74,52.2-22.21,22.13-43.38,39.76-88.75,73.36-64.75,47.95-97.6,72.06-120.5,79-38.76,11.74-70.95,9.13-105.35,6.35-42.06-3.4-60-11.06-147.2-37.38C237,825.36,221.93,825.91,190.26,801.56c-14.36-11-50.21-39.26-71.44-87.46-12.75-29-9.14-40-20.2-117.09-13.66-95.25-21-91.36-19.48-124.14,2.39-50.59,21.15-86.11,49.79-140.36,36.59-69.3,55.39-104.91,96-135.43,23.21-17.45,80-31.39,192.66-58.54C514.21,115.23,563.1,103.68,590.74,108.9Z" transform="translate(-36.3 -52.76)" fill="none" stroke="#fdb82b" stroke-miterlimit="10" stroke-width="7"/><path d="M592.89,58.11c46.48,7.15,81.51,26,98.74,35.5,40.27,22.14,63.83,46,103.18,86.54C842,228.7,829.89,226.84,904.65,314.4c38.53,45.13,55.24,61.44,67.68,96.52,3,8.33,13.85,40.82,12.2,84.32-1.11,29.19-6.88,37.48-23.3,99.85-22,83.45-15.35,82.79-27.74,106.51C915.6,735.89,892,756,856.95,785.93c-42.45,36.21-46.41,28.84-92.09,65.46-58.23,46.68-60.39,65.54-106.51,89.87-13.82,7.29-39.77,20.69-75.44,25.52-29.5,4-50.11,0-110.95-14.42C386.74,932.13,344.14,922,305.53,909.09c-51-17.09-77.15-26-107.62-44.38-22.72-13.7-55.82-34.08-85.43-73.23-5.56-7.35-26.56-35.94-41.05-79.88C58.72,673,61.76,655.2,55.9,588.44c-9.24-105.12-20.07-98.19-15.53-137.58,3.82-33.16,10.9-32.84,51-134.25,36-91,34.77-102.49,56.58-128.7,33.11-39.78,73.05-57.85,95.42-67.68,47.93-21.07,62.41-12.72,148.67-27.74C511.1,71.79,528.06,48.14,592.89,58.11Z" transform="translate(-36.3 -52.76)" fill="none" stroke="#fdb82b" stroke-miterlimit="10" stroke-width="6"/><path d="M506,452.75c15.64,0,30.48,1.25,43.85,17.08,2.24,2.66-13,22.67-9.8,36.39,4.77,20.26,27.43,41.13,7.41,58.63-22.54,19.7-50.41,15.4-53.92,14.8C465,574.72,436,549.4,436.28,516.12c0.27-38,38.38-63.45,69.75-63.37" transform="translate(-36.3 -52.76)" fill="#fdb82b"/><path d="M365.79,494.1c8.73-48.34,61.51-70.62,79.66-80.13,15.15-7.94,45.62-23.35,85.49-17.26,11.72,1.79,48.78,9.18,75.27,41.78a114.91,114.91,0,0,1,23.23,50.86c7.87,43.9-9,108.16-66,136.23-59.32,29.2-130.05-1.71-162.36-35.21C394.29,583.3,356.72,544.34,365.79,494.1Z" transform="translate(-36.3 -52.76)" fill="none" stroke="#fdb82b" stroke-miterlimit="10" stroke-width="19"/><path d="M318.25,474.85c16.52-62.75,78-90.8,104.51-102.89,24.42-11.14,86.68-39.55,154-11.79C632.23,383,669.38,434.4,676.88,486.64c5.86,40.86-7.63,73.58-15.67,93.11-8.13,19.71-25.38,61.57-63.53,85.87-65.8,41.92-170.25,16.59-228.82-42.87C356.16,609.87,299,548,318.25,474.85Z" transform="translate(-36.3 -52.76)" fill="none" stroke="#fdb82b" stroke-miterlimit="10" stroke-width="17"/><path d="M267,544.57c11,43.47,36.7,84.09,66.2,112.19,48.43,46.15,107,58.42,133.82,64,35.47,7.43,80.83,16.94,129.65-1.74,67.9-26,95.85-88.89,109.74-120.1,5.43-12.2,12.28-27.91,16.86-47" transform="translate(-36.3 -52.76)" fill="none" stroke="#fdb82b" stroke-linecap="round" stroke-miterlimit="10" stroke-width="15"/><path d="M719.69,454.69c-15.87-49.95-49.13-81.82-60.07-92-15.27-14.22-60.31-56.18-129.8-61.14-54.69-3.9-94.49,17.74-137.06,39.5-47.57,24.31-95.4,48.76-118.54,98.75a137.71,137.71,0,0,0-8.89,25.53" transform="translate(-36.3 -52.76)" fill="none" stroke="#fdb82b" stroke-linecap="round" stroke-miterlimit="10" stroke-width="15"/><path d="M567.21,550.06c-2.7,9.74-7.45,18.64-15.21,24.94-23.23,18.88-57.17,5-60.66,4.29-28.42-5.95-56.42-32.28-55-65.53,1.62-38,40.61-62,72-60.85a67,67,0,0,1,25.57,6.35" transform="translate(-36.3 -52.76)" fill="none" stroke="#fdb82b" stroke-linecap="round" stroke-miterlimit="10" stroke-width="33.6"/><path d="M249.34,417.77a66.23,66.23,0,0,1,10.22.8,19.56,19.56,0,0,1,8.62,3.37,59.22,59.22,0,0,1,13.57-5.29,70.38,70.38,0,0,1,18-2.08A60.41,60.41,0,0,1,325.95,420a54.09,54.09,0,0,1,19.47,15.55,73.06,73.06,0,0,1,12.29,24.21A107.3,107.3,0,0,1,362,491.19,130.93,130.93,0,0,1,357.71,525a98.72,98.72,0,0,1-12.45,28.69,65.47,65.47,0,0,1-20.11,20,49.61,49.61,0,0,1-27,7.53q-13.41,0-22.66-4a53.53,53.53,0,0,1-16-10.42v19.56A63.3,63.3,0,0,0,261.79,604a126.76,126.76,0,0,0,4.95,14.11q2.71,6.41,4.95,12.18a32.65,32.65,0,0,1,2.23,11.86q0,10.58-11.65,13.3t-32.08,2.73q-20.43,0-31.76-2.73t-11.33-13.3A37.41,37.41,0,0,1,189,630.34q1.92-5.77,4.31-12.18A131,131,0,0,0,197.62,604a73.34,73.34,0,0,0,1.92-17.63V502.09a44.17,44.17,0,0,0-2.71-16.19,120.46,120.46,0,0,0-5.91-12.82q-3.19-5.93-5.91-11.54a25.91,25.91,0,0,1-.16-22.76q2.55-5.61,9.9-10.26t20.43-7.69Q228.26,417.78,249.34,417.77Zm10.22,80.15V505q0.64,2.25,2.07,6.25a33.35,33.35,0,0,0,3.83,7.53A28.91,28.91,0,0,0,271.2,525a12.48,12.48,0,0,0,8.14,2.72,22.65,22.65,0,0,0,6.22-1,16.73,16.73,0,0,0,6.54-3.85,29,29,0,0,0,5.91-8,48.86,48.86,0,0,0,4.31-13.15q3.19-16.35-1.12-25.81t-13.57-9.46a20.09,20.09,0,0,0-12,3.53,32.12,32.12,0,0,0-8.3,8.66,44.82,44.82,0,0,0-5.11,10.42Q260.51,494.4,259.55,497.93Z" transform="translate(-36.3 -52.76)"/><path d="M435.44,417.77a76.25,76.25,0,0,1,8.46.48,23,23,0,0,1,7.82,2.24,15.85,15.85,0,0,1,5.75,4.81q2.23,3.05,2.23,8.5a53.53,53.53,0,0,1-2.23,14.11q-2.24,8-4.79,17t-4.79,18.44a81.29,81.29,0,0,0-2.23,18.76v4.17a63.28,63.28,0,0,0,2.23,17.63A126.41,126.41,0,0,0,452.84,538q2.71,6.42,4.95,12A32.27,32.27,0,0,1,460,562q0,10.58-11.65,13.3t-32.08,2.73q-20.43,0-31.76-2.73T373.19,562a37,37,0,0,1,1.92-12q1.92-5.6,4.31-12a130.63,130.63,0,0,0,4.31-14.11,73.31,73.31,0,0,0,1.92-17.63v-4.17a44.17,44.17,0,0,0-2.71-16.19A120.46,120.46,0,0,0,377,473.08q-3.19-5.93-5.91-11.54a25.91,25.91,0,0,1-.16-22.76q2.55-5.61,9.9-10.26t20.43-7.69Q414.37,417.78,435.44,417.77ZM414.37,344a56.77,56.77,0,0,1,16.76,2.4A48.32,48.32,0,0,1,444.86,353a34.26,34.26,0,0,1,9.42,9.78,22.34,22.34,0,0,1,0,24,34.14,34.14,0,0,1-9.42,9.78,48.18,48.18,0,0,1-13.73,6.57,56.77,56.77,0,0,1-16.76,2.4,58.32,58.32,0,0,1-16.92-2.4,47.72,47.72,0,0,1-13.89-6.57,34,34,0,0,1-9.42-9.78,22.34,22.34,0,0,1,0-24,34.14,34.14,0,0,1,9.42-9.78,47.86,47.86,0,0,1,13.89-6.57A58.32,58.32,0,0,1,414.37,344Z" transform="translate(-36.3 -52.76)"/><path d="M533.44,417.77a66.22,66.22,0,0,1,10.21.8,19.55,19.55,0,0,1,8.62,3.37,59.22,59.22,0,0,1,13.57-5.29,70.38,70.38,0,0,1,18-2.08A60.41,60.41,0,0,1,610.05,420a54.1,54.1,0,0,1,19.47,15.55,73,73,0,0,1,12.29,24.21,107.3,107.3,0,0,1,4.31,31.42A130.93,130.93,0,0,1,641.81,525a98.7,98.7,0,0,1-12.45,28.69,65.47,65.47,0,0,1-20.11,20,49.62,49.62,0,0,1-27,7.53q-13.41,0-22.67-4a53.55,53.55,0,0,1-16-10.42v19.56A63.3,63.3,0,0,0,545.89,604a126.75,126.75,0,0,0,4.95,14.11q2.71,6.41,4.95,12.18A32.65,32.65,0,0,1,558,642.2q0,10.58-11.65,13.3t-32.08,2.73q-20.43,0-31.76-2.73t-11.33-13.3a37.41,37.41,0,0,1,1.92-11.86q1.92-5.77,4.31-12.18A131,131,0,0,0,481.72,604a73.34,73.34,0,0,0,1.92-17.63V502.09a44.17,44.17,0,0,0-2.71-16.19A120.46,120.46,0,0,0,475,473.08q-3.19-5.93-5.91-11.54a25.91,25.91,0,0,1-.16-22.76q2.55-5.61,9.9-10.26t20.43-7.69Q512.37,417.78,533.44,417.77Zm10.21,80.15V505q0.64,2.25,2.08,6.25a33.35,33.35,0,0,0,3.83,7.53A28.89,28.89,0,0,0,555.3,525a12.48,12.48,0,0,0,8.14,2.72,22.65,22.65,0,0,0,6.22-1,16.74,16.74,0,0,0,6.54-3.85,29,29,0,0,0,5.91-8,48.89,48.89,0,0,0,4.31-13.15q3.19-16.35-1.12-25.81t-13.57-9.46a20.09,20.09,0,0,0-12,3.53,32.13,32.13,0,0,0-8.3,8.66,44.84,44.84,0,0,0-5.11,10.42Q544.61,494.4,543.65,497.93Z" transform="translate(-36.3 -52.76)"/><path d="M652.5,497.93q0-20.2,7.34-35.75A79.87,79.87,0,0,1,679.16,436a82,82,0,0,1,27.61-16,96.21,96.21,0,0,1,63.84,0,82,82,0,0,1,27.61,16,79.93,79.93,0,0,1,19.31,26.13q7.34,15.55,7.34,35.75a78.68,78.68,0,0,1-7.34,34.31,84.09,84.09,0,0,1-19.31,26.29,85.68,85.68,0,0,1-27.61,16.83,88.86,88.86,0,0,1-63.84,0,85.65,85.65,0,0,1-27.61-16.83,84,84,0,0,1-19.31-26.29A78.61,78.61,0,0,1,652.5,497.93Zm66.08,2.56a60.61,60.61,0,0,0,1.76,10.58,51.25,51.25,0,0,0,4.15,11.06,28.33,28.33,0,0,0,6.86,8.82,14.76,14.76,0,0,0,9.9,3.53q7.34,0,13.25-9.94t4.63-26.29a64.37,64.37,0,0,0-1.75-10.74,49.2,49.2,0,0,0-4-10.9,27.7,27.7,0,0,0-6.7-8.5,15.25,15.25,0,0,0-10.21-3.53q-7.35,0-13.25,9.3T718.58,500.49Z" transform="translate(-36.3 -52.76)"/></svg>